<mxfile host="65bd71144e">
    <diagram id="0z1QWQmxoXmX3ae4kdpT" name="Page-1">
        <mxGraphModel dx="1883" dy="1312" grid="1" gridSize="10" guides="1" tooltips="1" connect="1" arrows="1" fold="1" page="1" pageScale="1" pageWidth="850" pageHeight="1100" math="0" shadow="0">
            <root>
                <mxCell id="0"/>
                <mxCell id="1" parent="0"/>
                <mxCell id="83" value="0.25" style="edgeStyle=none;html=1;fontSize=30;labelBackgroundColor=none;" edge="1" parent="1" source="5" target="15">
                    <mxGeometry y="-20" relative="1" as="geometry">
                        <Array as="points">
                            <mxPoint x="265" y="170"/>
                        </Array>
                        <mxPoint x="-5" y="1" as="offset"/>
                    </mxGeometry>
                </mxCell>
                <mxCell id="85" value="0.75" style="edgeStyle=orthogonalEdgeStyle;html=1;curved=1;fontSize=30;labelBackgroundColor=none;" edge="1" parent="1" source="5" target="5">
                    <mxGeometry y="20" relative="1" as="geometry">
                        <mxPoint x="135" y="30" as="targetPoint"/>
                        <Array as="points">
                            <mxPoint x="165" y="60"/>
                        </Array>
                        <mxPoint as="offset"/>
                    </mxGeometry>
                </mxCell>
                <mxCell id="5" value="0" style="ellipse;whiteSpace=wrap;html=1;aspect=fixed;fontSize=30;labelBackgroundColor=none;fillColor=#a20025;fontColor=#ffffff;strokeColor=#000000;" vertex="1" parent="1">
                    <mxGeometry x="105" y="100" width="80" height="80" as="geometry"/>
                </mxCell>
                <mxCell id="84" value="0.5" style="edgeStyle=none;html=1;fontSize=30;labelBackgroundColor=none;" edge="1" parent="1" source="15" target="5">
                    <mxGeometry y="-20" relative="1" as="geometry">
                        <Array as="points">
                            <mxPoint x="265" y="110"/>
                        </Array>
                        <mxPoint x="5" y="-1" as="offset"/>
                    </mxGeometry>
                </mxCell>
                <mxCell id="15" value="1" style="ellipse;whiteSpace=wrap;html=1;aspect=fixed;fontSize=30;labelBackgroundColor=none;fillColor=#e3c800;fontColor=#000000;strokeColor=#000000;" vertex="1" parent="1">
                    <mxGeometry x="345" y="100" width="80" height="80" as="geometry"/>
                </mxCell>
                <mxCell id="17" value="0.8" style="text;html=1;strokeColor=none;fillColor=none;align=center;verticalAlign=middle;whiteSpace=wrap;rounded=0;labelBackgroundColor=none;fontSize=30;fontColor=#A20025;" vertex="1" parent="1">
                    <mxGeometry x="370" y="350" width="60" height="30" as="geometry"/>
                </mxCell>
                <mxCell id="21" value="0.2" style="text;html=1;strokeColor=none;fillColor=none;align=center;verticalAlign=middle;whiteSpace=wrap;rounded=0;labelBackgroundColor=none;fontSize=30;fontColor=#E3C800;" vertex="1" parent="1">
                    <mxGeometry x="440" y="350" width="60" height="30" as="geometry"/>
                </mxCell>
                <mxCell id="22" value="[" style="text;html=1;strokeColor=none;fillColor=none;align=center;verticalAlign=middle;whiteSpace=wrap;rounded=0;labelBackgroundColor=none;fontSize=37;" vertex="1" parent="1">
                    <mxGeometry x="330" y="350" width="60" height="30" as="geometry"/>
                </mxCell>
                <mxCell id="23" value="]" style="text;html=1;strokeColor=none;fillColor=none;align=center;verticalAlign=middle;whiteSpace=wrap;rounded=0;labelBackgroundColor=none;fontSize=37;" vertex="1" parent="1">
                    <mxGeometry x="480" y="350" width="60" height="30" as="geometry"/>
                </mxCell>
                <mxCell id="36" value="0.25" style="text;html=1;strokeColor=none;fillColor=none;align=center;verticalAlign=middle;whiteSpace=wrap;rounded=0;labelBackgroundColor=none;fontSize=30;fontColor=default;" vertex="1" parent="1">
                    <mxGeometry x="190" y="310" width="60" height="30" as="geometry"/>
                </mxCell>
                <mxCell id="37" value="0.50" style="text;html=1;strokeColor=none;fillColor=none;align=center;verticalAlign=middle;whiteSpace=wrap;rounded=0;labelBackgroundColor=none;fontSize=30;fontColor=default;" vertex="1" parent="1">
                    <mxGeometry x="190" y="360" width="60" height="30" as="geometry"/>
                </mxCell>
                <mxCell id="40" value="0.75" style="text;html=1;strokeColor=none;fillColor=none;align=center;verticalAlign=middle;whiteSpace=wrap;rounded=0;labelBackgroundColor=none;fontSize=30;fontColor=default;" vertex="1" parent="1">
                    <mxGeometry x="110" y="310" width="60" height="30" as="geometry"/>
                </mxCell>
                <mxCell id="41" value="0.50" style="text;html=1;strokeColor=none;fillColor=none;align=center;verticalAlign=middle;whiteSpace=wrap;rounded=0;labelBackgroundColor=none;fontSize=30;fontColor=default;" vertex="1" parent="1">
                    <mxGeometry x="110" y="360" width="60" height="30" as="geometry"/>
                </mxCell>
                <mxCell id="44" value="0" style="text;html=1;strokeColor=none;fillColor=none;align=center;verticalAlign=middle;whiteSpace=wrap;rounded=0;labelBackgroundColor=none;fontSize=20;fontColor=#A20025;" vertex="1" parent="1">
                    <mxGeometry x="110" y="280" width="60" height="30" as="geometry"/>
                </mxCell>
                <mxCell id="48" value="1" style="text;html=1;strokeColor=none;fillColor=none;align=center;verticalAlign=middle;whiteSpace=wrap;rounded=0;labelBackgroundColor=none;fontSize=20;fontColor=#E3C800;" vertex="1" parent="1">
                    <mxGeometry x="190" y="280" width="60" height="30" as="geometry"/>
                </mxCell>
                <mxCell id="49" value="0" style="text;html=1;strokeColor=none;fillColor=none;align=center;verticalAlign=middle;whiteSpace=wrap;rounded=0;labelBackgroundColor=none;fontSize=20;fontColor=#A20025;" vertex="1" parent="1">
                    <mxGeometry x="60" y="310" width="60" height="30" as="geometry"/>
                </mxCell>
                <mxCell id="53" value="1" style="text;html=1;strokeColor=none;fillColor=none;align=center;verticalAlign=middle;whiteSpace=wrap;rounded=0;labelBackgroundColor=none;fontSize=20;fontColor=#E3C800;" vertex="1" parent="1">
                    <mxGeometry x="60" y="360" width="60" height="30" as="geometry"/>
                </mxCell>
                <mxCell id="61" value="From" style="text;html=1;strokeColor=none;fillColor=none;align=center;verticalAlign=middle;whiteSpace=wrap;rounded=0;labelBackgroundColor=none;fontSize=20;fontColor=default;rotation=-90;" vertex="1" parent="1">
                    <mxGeometry y="340" width="60" height="30" as="geometry"/>
                </mxCell>
                <mxCell id="62" value="To" style="text;html=1;strokeColor=none;fillColor=none;align=center;verticalAlign=middle;whiteSpace=wrap;rounded=0;labelBackgroundColor=none;fontSize=20;fontColor=default;rotation=0;" vertex="1" parent="1">
                    <mxGeometry x="160" y="250" width="60" height="30" as="geometry"/>
                </mxCell>
                <mxCell id="63" value="Initial Probability Vector" style="text;html=1;strokeColor=none;fillColor=none;align=left;verticalAlign=middle;whiteSpace=wrap;rounded=0;labelBackgroundColor=none;fontSize=20;fontColor=default;rotation=0;" vertex="1" parent="1">
                    <mxGeometry x="530" y="350" width="80" height="30" as="geometry"/>
                </mxCell>
                <mxCell id="64" value="Transition Probability Matrix" style="text;html=1;strokeColor=none;fillColor=none;align=right;verticalAlign=middle;whiteSpace=wrap;rounded=0;labelBackgroundColor=none;fontSize=20;fontColor=default;rotation=0;" vertex="1" parent="1">
                    <mxGeometry x="-70" y="330" width="80" height="30" as="geometry"/>
                </mxCell>
                <mxCell id="65" value="" style="endArrow=none;html=1;labelBackgroundColor=none;fontSize=20;fontColor=default;endSize=20;strokeWidth=3;" edge="1" parent="1">
                    <mxGeometry width="50" height="50" relative="1" as="geometry">
                        <mxPoint x="279" y="410" as="sourcePoint"/>
                        <mxPoint x="279.43" y="280" as="targetPoint"/>
                    </mxGeometry>
                </mxCell>
                <mxCell id="66" value="" style="endArrow=none;html=1;labelBackgroundColor=none;fontSize=20;fontColor=default;endSize=20;strokeWidth=3;" edge="1" parent="1">
                    <mxGeometry width="50" height="50" relative="1" as="geometry">
                        <mxPoint x="59" y="410" as="sourcePoint"/>
                        <mxPoint x="59" y="280" as="targetPoint"/>
                    </mxGeometry>
                </mxCell>
                <mxCell id="67" value="" style="endArrow=none;html=1;labelBackgroundColor=none;fontSize=20;fontColor=default;endSize=20;strokeWidth=3;" edge="1" parent="1">
                    <mxGeometry width="50" height="50" relative="1" as="geometry">
                        <mxPoint x="80" y="280" as="sourcePoint"/>
                        <mxPoint x="60" y="280" as="targetPoint"/>
                    </mxGeometry>
                </mxCell>
                <mxCell id="68" value="" style="endArrow=none;html=1;labelBackgroundColor=none;fontSize=20;fontColor=default;endSize=20;strokeWidth=3;" edge="1" parent="1">
                    <mxGeometry width="50" height="50" relative="1" as="geometry">
                        <mxPoint x="80" y="410" as="sourcePoint"/>
                        <mxPoint x="60" y="410" as="targetPoint"/>
                    </mxGeometry>
                </mxCell>
                <mxCell id="69" value="" style="endArrow=none;html=1;labelBackgroundColor=none;fontSize=20;fontColor=default;endSize=20;strokeWidth=3;" edge="1" parent="1">
                    <mxGeometry width="50" height="50" relative="1" as="geometry">
                        <mxPoint x="280" y="410" as="sourcePoint"/>
                        <mxPoint x="260" y="410" as="targetPoint"/>
                    </mxGeometry>
                </mxCell>
                <mxCell id="70" value="" style="endArrow=none;html=1;labelBackgroundColor=none;fontSize=20;fontColor=default;endSize=20;strokeWidth=3;" edge="1" parent="1">
                    <mxGeometry width="50" height="50" relative="1" as="geometry">
                        <mxPoint x="280" y="279.43" as="sourcePoint"/>
                        <mxPoint x="260" y="279.43" as="targetPoint"/>
                    </mxGeometry>
                </mxCell>
                <mxCell id="71" value="Start probably on a hot day" style="text;html=1;strokeColor=none;fillColor=none;align=center;verticalAlign=middle;whiteSpace=wrap;rounded=0;labelBackgroundColor=none;fontSize=15;fontColor=default;rotation=0;" vertex="1" parent="1">
                    <mxGeometry x="330" y="400" width="220" height="30" as="geometry"/>
                </mxCell>
                <mxCell id="72" value="State Space" style="text;html=1;strokeColor=none;fillColor=none;align=left;verticalAlign=middle;whiteSpace=wrap;rounded=0;labelBackgroundColor=none;fontSize=20;fontColor=default;rotation=0;" vertex="1" parent="1">
                    <mxGeometry x="530" y="270" width="80" height="30" as="geometry"/>
                </mxCell>
                <mxCell id="73" value="}" style="text;html=1;strokeColor=none;fillColor=none;align=center;verticalAlign=middle;whiteSpace=wrap;rounded=0;labelBackgroundColor=none;fontSize=37;" vertex="1" parent="1">
                    <mxGeometry x="480" y="270" width="60" height="30" as="geometry"/>
                </mxCell>
                <mxCell id="74" value="{" style="text;html=1;strokeColor=none;fillColor=none;align=center;verticalAlign=middle;whiteSpace=wrap;rounded=0;labelBackgroundColor=none;fontSize=37;" vertex="1" parent="1">
                    <mxGeometry x="330" y="270" width="60" height="30" as="geometry"/>
                </mxCell>
                <mxCell id="75" value="0" style="text;html=1;strokeColor=none;fillColor=none;align=center;verticalAlign=middle;whiteSpace=wrap;rounded=0;labelBackgroundColor=none;fontSize=30;fontColor=#A20025;" vertex="1" parent="1">
                    <mxGeometry x="370" y="270" width="60" height="30" as="geometry"/>
                </mxCell>
                <mxCell id="79" value="1" style="text;html=1;strokeColor=none;fillColor=none;align=center;verticalAlign=middle;whiteSpace=wrap;rounded=0;labelBackgroundColor=none;fontSize=30;fontColor=#E3C800;" vertex="1" parent="1">
                    <mxGeometry x="440" y="270" width="60" height="30" as="geometry"/>
                </mxCell>
                <mxCell id="80" value="J =" style="text;html=1;strokeColor=none;fillColor=none;align=left;verticalAlign=middle;whiteSpace=wrap;rounded=0;labelBackgroundColor=none;fontSize=30;fontColor=default;rotation=0;" vertex="1" parent="1">
                    <mxGeometry x="300" y="270" width="80" height="40" as="geometry"/>
                </mxCell>
                <mxCell id="82" value="π&lt;font style=&quot;font-size: 15px&quot;&gt;0&lt;/font&gt; =" style="text;html=1;strokeColor=none;fillColor=none;align=left;verticalAlign=middle;whiteSpace=wrap;rounded=0;labelBackgroundColor=none;fontSize=30;fontColor=default;rotation=0;" vertex="1" parent="1">
                    <mxGeometry x="290" y="350" width="80" height="40" as="geometry"/>
                </mxCell>
                <mxCell id="86" value="0.5" style="edgeStyle=orthogonalEdgeStyle;curved=1;html=1;fontSize=30;labelBackgroundColor=none;" edge="1" parent="1" source="15" target="15">
                    <mxGeometry y="30" relative="1" as="geometry">
                        <Array as="points">
                            <mxPoint x="405" y="60"/>
                        </Array>
                        <mxPoint as="offset"/>
                    </mxGeometry>
                </mxCell>
                <mxCell id="87" value="Hot Day" style="text;html=1;strokeColor=none;fillColor=none;align=center;verticalAlign=middle;whiteSpace=wrap;rounded=0;labelBackgroundColor=none;fontSize=15;fontColor=default;rotation=0;" vertex="1" parent="1">
                    <mxGeometry x="85" y="190" width="120" height="30" as="geometry"/>
                </mxCell>
                <mxCell id="88" value="Cold Day" style="text;html=1;strokeColor=none;fillColor=none;align=center;verticalAlign=middle;whiteSpace=wrap;rounded=0;labelBackgroundColor=none;fontSize=15;fontColor=default;rotation=0;" vertex="1" parent="1">
                    <mxGeometry x="325" y="190" width="120" height="30" as="geometry"/>
                </mxCell>
                <mxCell id="90" value="0.0" style="text;html=1;strokeColor=none;fillColor=none;align=center;verticalAlign=middle;whiteSpace=wrap;rounded=0;labelBackgroundColor=none;fontSize=30;fontColor=#A20025;" vertex="1" parent="1">
                    <mxGeometry x="370" y="435" width="60" height="30" as="geometry"/>
                </mxCell>
                <mxCell id="91" value="1.0" style="text;html=1;strokeColor=none;fillColor=none;align=center;verticalAlign=middle;whiteSpace=wrap;rounded=0;labelBackgroundColor=none;fontSize=30;fontColor=#E3C800;" vertex="1" parent="1">
                    <mxGeometry x="440" y="435" width="60" height="30" as="geometry"/>
                </mxCell>
                <mxCell id="92" value="[" style="text;html=1;strokeColor=none;fillColor=none;align=center;verticalAlign=middle;whiteSpace=wrap;rounded=0;labelBackgroundColor=none;fontSize=37;" vertex="1" parent="1">
                    <mxGeometry x="330" y="435" width="60" height="30" as="geometry"/>
                </mxCell>
                <mxCell id="93" value="]" style="text;html=1;strokeColor=none;fillColor=none;align=center;verticalAlign=middle;whiteSpace=wrap;rounded=0;labelBackgroundColor=none;fontSize=37;" vertex="1" parent="1">
                    <mxGeometry x="480" y="435" width="60" height="30" as="geometry"/>
                </mxCell>
                <mxCell id="96" value="π&lt;font style=&quot;font-size: 15px&quot;&gt;0&lt;/font&gt; =" style="text;html=1;strokeColor=none;fillColor=none;align=left;verticalAlign=middle;whiteSpace=wrap;rounded=0;labelBackgroundColor=none;fontSize=30;fontColor=default;rotation=0;" vertex="1" parent="1">
                    <mxGeometry x="290" y="435" width="80" height="40" as="geometry"/>
                </mxCell>
                <mxCell id="97" value="Always start on a cold day" style="text;html=1;strokeColor=none;fillColor=none;align=center;verticalAlign=middle;whiteSpace=wrap;rounded=0;labelBackgroundColor=none;fontSize=15;fontColor=default;rotation=0;" vertex="1" parent="1">
                    <mxGeometry x="325" y="480" width="220" height="30" as="geometry"/>
                </mxCell>
                <mxCell id="98" value="..." style="text;html=1;strokeColor=none;fillColor=none;align=center;verticalAlign=middle;whiteSpace=wrap;rounded=0;labelBackgroundColor=none;fontSize=50;fontColor=default;fontStyle=1" vertex="1" parent="1">
                    <mxGeometry x="410" y="500" width="60" height="30" as="geometry"/>
                </mxCell>
                <mxCell id="99" value="0" style="text;html=1;strokeColor=none;fillColor=none;align=center;verticalAlign=middle;whiteSpace=wrap;rounded=0;labelBackgroundColor=none;fontSize=30;fontColor=#A20025;" vertex="1" parent="1">
                    <mxGeometry x="80" y="570" width="60" height="30" as="geometry"/>
                </mxCell>
                <mxCell id="100" value="1" style="text;html=1;strokeColor=none;fillColor=none;align=center;verticalAlign=middle;whiteSpace=wrap;rounded=0;labelBackgroundColor=none;fontSize=30;fontColor=#E3C800;" vertex="1" parent="1">
                    <mxGeometry x="150" y="570" width="60" height="30" as="geometry"/>
                </mxCell>
                <mxCell id="101" value="0" style="text;html=1;strokeColor=none;fillColor=none;align=center;verticalAlign=middle;whiteSpace=wrap;rounded=0;labelBackgroundColor=none;fontSize=35;fontColor=#A20025;fontStyle=1" vertex="1" parent="1">
                    <mxGeometry x="220" y="570" width="60" height="30" as="geometry"/>
                </mxCell>
                <mxCell id="102" value="1" style="text;html=1;strokeColor=none;fillColor=none;align=center;verticalAlign=middle;whiteSpace=wrap;rounded=0;labelBackgroundColor=none;fontSize=30;fontColor=#E3C800;" vertex="1" parent="1">
                    <mxGeometry x="290" y="570" width="60" height="30" as="geometry"/>
                </mxCell>
                <mxCell id="103" value="0" style="text;html=1;strokeColor=none;fillColor=none;align=center;verticalAlign=middle;whiteSpace=wrap;rounded=0;labelBackgroundColor=none;fontSize=30;fontColor=#A20025;" vertex="1" parent="1">
                    <mxGeometry x="80" y="610" width="60" height="30" as="geometry"/>
                </mxCell>
                <mxCell id="104" value="0" style="text;html=1;strokeColor=none;fillColor=none;align=center;verticalAlign=middle;whiteSpace=wrap;rounded=0;labelBackgroundColor=none;fontSize=30;fontColor=#A20025;" vertex="1" parent="1">
                    <mxGeometry x="150" y="610" width="60" height="30" as="geometry"/>
                </mxCell>
                <mxCell id="105" value="0" style="text;html=1;strokeColor=none;fillColor=none;align=center;verticalAlign=middle;whiteSpace=wrap;rounded=0;labelBackgroundColor=none;fontSize=35;fontColor=#A20025;fontStyle=1" vertex="1" parent="1">
                    <mxGeometry x="220" y="610" width="60" height="30" as="geometry"/>
                </mxCell>
                <mxCell id="107" value="0" style="text;html=1;strokeColor=none;fillColor=none;align=center;verticalAlign=middle;whiteSpace=wrap;rounded=0;labelBackgroundColor=none;fontSize=30;fontColor=#A20025;" vertex="1" parent="1">
                    <mxGeometry x="290" y="610" width="60" height="30" as="geometry"/>
                </mxCell>
                <mxCell id="108" value="1" style="text;html=1;strokeColor=none;fillColor=none;align=center;verticalAlign=middle;whiteSpace=wrap;rounded=0;labelBackgroundColor=none;fontSize=30;fontColor=#E3C800;" vertex="1" parent="1">
                    <mxGeometry x="80" y="650" width="60" height="30" as="geometry"/>
                </mxCell>
                <mxCell id="109" value="0" style="text;html=1;strokeColor=none;fillColor=none;align=center;verticalAlign=middle;whiteSpace=wrap;rounded=0;labelBackgroundColor=none;fontSize=30;fontColor=#A20025;" vertex="1" parent="1">
                    <mxGeometry x="150" y="650" width="60" height="30" as="geometry"/>
                </mxCell>
                <mxCell id="110" value="1" style="text;html=1;strokeColor=none;fillColor=none;align=center;verticalAlign=middle;whiteSpace=wrap;rounded=0;labelBackgroundColor=none;fontSize=35;fontColor=#E3C800;fontStyle=1" vertex="1" parent="1">
                    <mxGeometry x="220" y="650" width="60" height="30" as="geometry"/>
                </mxCell>
                <mxCell id="111" value="1" style="text;html=1;strokeColor=none;fillColor=none;align=center;verticalAlign=middle;whiteSpace=wrap;rounded=0;labelBackgroundColor=none;fontSize=30;fontColor=#E3C800;" vertex="1" parent="1">
                    <mxGeometry x="290" y="650" width="60" height="30" as="geometry"/>
                </mxCell>
                <mxCell id="112" value="Possible sample paths" style="text;html=1;strokeColor=none;fillColor=none;align=center;verticalAlign=middle;whiteSpace=wrap;rounded=0;labelBackgroundColor=none;fontSize=15;fontColor=default;rotation=0;" vertex="1" parent="1">
                    <mxGeometry x="110" y="500" width="220" height="30" as="geometry"/>
                </mxCell>
                <mxCell id="115" style="edgeStyle=orthogonalEdgeStyle;curved=1;html=1;exitX=0.5;exitY=0;exitDx=0;exitDy=0;labelBackgroundColor=none;fontSize=19;fontColor=#A20025;" edge="1" parent="1" source="114">
                    <mxGeometry relative="1" as="geometry">
                        <mxPoint x="250.1428571428571" y="720" as="targetPoint"/>
                    </mxGeometry>
                </mxCell>
                <mxCell id="114" value="P(X&lt;font style=&quot;font-size: 19px&quot;&gt;2&lt;/font&gt; = 1)" style="text;html=1;strokeColor=none;fillColor=none;align=left;verticalAlign=middle;whiteSpace=wrap;rounded=0;labelBackgroundColor=none;fontSize=30;fontColor=default;rotation=0;" vertex="1" parent="1">
                    <mxGeometry x="175" y="740" width="150" height="40" as="geometry"/>
                </mxCell>
                <mxCell id="116" value="..." style="text;html=1;strokeColor=none;fillColor=none;align=center;verticalAlign=middle;whiteSpace=wrap;rounded=0;labelBackgroundColor=none;fontSize=50;fontColor=default;fontStyle=1" vertex="1" parent="1">
                    <mxGeometry x="190" y="670" width="60" height="30" as="geometry"/>
                </mxCell>
                <mxCell id="117" value="..." style="text;html=1;strokeColor=none;fillColor=none;align=center;verticalAlign=middle;whiteSpace=wrap;rounded=0;labelBackgroundColor=none;fontSize=50;fontColor=default;fontStyle=1" vertex="1" parent="1">
                    <mxGeometry x="190" y="520" width="60" height="30" as="geometry"/>
                </mxCell>
            </root>
        </mxGraphModel>
    </diagram>
</mxfile>